<svg viewBox="0 0 24 24" xmlns="http://www.w3.org/2000/svg"><g fill="none" stroke="#000" stroke-width=".75"><path d="m18.5 19.92v-2.01c0-1.07-.34-2.09-.95-2.83s-1.44-1.18-2.3-1.18h-6.51c-.86 0-1.69.42-2.3 1.18-.61.75-.95 1.78-.95 2.83v2.01" stroke-linecap="round" stroke-linejoin="round"/><path d="m12 12.1c2.22 0 4.01-1.8 4.01-4.01s-1.8-4.01-4.01-4.01-4.01 1.8-4.01 4.01 1.8 4.01 4.01 4.01z" stroke-linecap="round" stroke-linejoin="round"/><path d="m12.55 13.91h-1.11l-.62 4.98c-.03.23.08.46.28.58l.59.36c.19.11.42.11.61 0l.59-.36c.2-.12.31-.35.28-.58z" stroke-miterlimit="10"/></g></svg>