<svg viewBox="0 0 595.28 595.28" xmlns="http://www.w3.org/2000/svg" xmlns:xlink="http://www.w3.org/1999/xlink"><linearGradient id="a" gradientUnits="userSpaceOnUse" x1="-3.7" x2="630.29" y1="107.91" y2="378.9"><stop offset="0" stop-color="#b0dff8"/><stop offset="1" stop-color="#2d4163"/></linearGradient><linearGradient id="b" gradientUnits="userSpaceOnUse" x1="-34.42" x2="599.49" y1="179.9" y2="450.86"><stop offset="0" stop-color="#aedaf2"/><stop offset="1" stop-color="#2d4163"/></linearGradient><linearGradient id="c" gradientUnits="userSpaceOnUse" x1="122.27" x2="756.27" y1="279.69" y2="550.69"><stop offset="0" stop-color="#aedaf2"/><stop offset=".17" stop-color="#8fb5d0"/><stop offset=".45" stop-color="#6583a1"/><stop offset=".68" stop-color="#465f7f"/><stop offset=".88" stop-color="#33496a"/><stop offset="1" stop-color="#2d4163"/></linearGradient><g fill="url(#a)" opacity=".66"><path d="m446.66 491.96c-17.94 0-35.98-4.38-52.18-12.65-26.79-13.69-46.75-36.75-56.19-64.93-2.46-7.33-4.15-14.84-5.03-22.32-2.63-22.28-15.55-42.03-34.91-53.36-11.1-6.5-23.59-9.79-36.12-9.79-9.32 0-18.67 1.82-27.5 5.5-14.29 5.95-29.58 8.97-45.44 8.97-18.95 0-38-4.62-55.11-13.36-28.11-14.36-49.14-38.45-59.2-67.83-10.06-29.37-7.95-60.52 5.93-87.7 19.33-37.83 58.46-61.33 102.13-61.33 11.49 0 23.02 1.7 34.28 5.04 6.71 1.99 13.57 2.96 20.35 2.96 20.35 0 40.12-8.7 53.92-24.52 15.89-18.23 39.36-28.69 64.39-28.69 14.05 0 28.18 3.43 40.86 9.91 20.81 10.64 36.39 28.5 43.86 50.31 6.75 19.72 6.25 40.03-1.46 58.73-7.4 17.95-7.19 38.15.6 55.94s22.47 31.65 40.68 38.4c4.23 1.57 8.4 3.4 12.4 5.44 26.61 13.6 46.52 36.4 56.04 64.21s7.53 57.29-5.62 83.02c-18.3 35.81-55.34 58.06-96.68 58.06z"/><path d="m446.66 491.96c-17.94 0-35.98-4.38-52.18-12.65-26.79-13.69-46.75-36.75-56.19-64.93-2.46-7.33-4.15-14.84-5.03-22.32-2.63-22.28-15.55-42.03-34.91-53.36-11.1-6.5-23.59-9.79-36.12-9.79-9.32 0-18.67 1.82-27.5 5.5-14.29 5.95-29.58 8.97-45.44 8.97-18.95 0-38-4.62-55.11-13.36-28.11-14.36-49.14-38.45-59.2-67.83-10.06-29.37-7.95-60.52 5.93-87.7 19.33-37.83 58.46-61.33 102.13-61.33 11.49 0 23.02 1.7 34.28 5.04 6.71 1.99 13.57 2.96 20.35 2.96 20.35 0 40.12-8.7 53.92-24.52 15.89-18.23 39.36-28.69 64.39-28.69 14.05 0 28.18 3.43 40.86 9.91 20.81 10.64 36.39 28.5 43.86 50.31 6.75 19.72 6.25 40.03-1.46 58.73-7.4 17.95-7.19 38.15.6 55.94s22.47 31.65 40.68 38.4c4.23 1.57 8.4 3.4 12.4 5.44 26.61 13.6 46.52 36.4 56.04 64.21s7.53 57.29-5.62 83.02c-18.3 35.81-55.34 58.06-96.68 58.06z"/></g><g fill="url(#b)" opacity=".88"><path d="m210.84 512.12c-2.33 0-4.69-.07-7.01-.21-30.38-1.78-58.3-14.92-78.62-37.01-20.32-22.08-30.56-50.41-28.83-79.78 1.61-27.47 13.85-53.27 34.47-72.65 19.89-18.7 27.4-47.08 19.37-73.17-4.32-14.03-6.07-28.69-5.2-43.57 3.92-66.84 61.19-119.2 130.37-119.2 2.67 0 5.39.08 8.07.24 34.99 2.05 67.12 17.16 90.46 42.53 11.34 12.32 19.96 26.25 25.62 41.4 9.16 24.51 30.98 42.06 56.88 45.76 20.8 2.97 39.22 12.75 53.29 28.28 15.38 16.98 23.13 38.64 21.82 61.01-2.63 44.82-41.02 79.92-87.41 79.92-1.79 0-3.61-.05-5.4-.16-8.65-.51-17.07-2.19-25.05-5-7.71-2.71-15.74-4.06-23.75-4.06-11.54 0-23.03 2.79-33.44 8.3-17.64 9.33-30.58 25.6-35.69 44.89-12.88 48.57-58.1 82.49-109.96 82.49z"/><path d="m210.84 512.12c-2.33 0-4.69-.07-7.01-.21-30.38-1.78-58.3-14.92-78.62-37.01-20.32-22.08-30.56-50.41-28.83-79.78 1.61-27.47 13.85-53.27 34.47-72.65 19.89-18.7 27.4-47.08 19.37-73.17-4.32-14.03-6.07-28.69-5.2-43.57 3.92-66.84 61.19-119.2 130.37-119.2 2.67 0 5.39.08 8.07.24 34.99 2.05 67.12 17.16 90.46 42.53 11.34 12.32 19.96 26.25 25.62 41.4 9.16 24.51 30.98 42.06 56.88 45.76 20.8 2.97 39.22 12.75 53.29 28.28 15.38 16.98 23.13 38.64 21.82 61.01-2.63 44.82-41.02 79.92-87.41 79.92-1.79 0-3.61-.05-5.4-.16-8.65-.51-17.07-2.19-25.05-5-7.71-2.71-15.74-4.06-23.75-4.06-11.54 0-23.03 2.79-33.44 8.3-17.64 9.33-30.58 25.6-35.69 44.89-12.88 48.57-58.1 82.49-109.96 82.49z"/></g><g fill="url(#c)" opacity=".76"><path d="m330.75 527.33c-12.45 0-24.97-3.04-36.22-8.78-12.79-6.53-23.5-16.22-30.97-28.02-13.41-21.16-36.46-33.25-60.43-33.25-7.92 0-15.94 1.32-23.74 4.07-10.9 3.84-22.43 5.79-34.26 5.79-16.46 0-33.02-4.01-47.89-11.61-24.42-12.48-42.69-33.41-51.43-58.93s-6.91-52.58 5.16-76.2c16.79-32.87 50.79-53.28 88.73-53.28 13.93 0 28.19 2.94 41.26 8.51 9.15 3.9 18.65 5.74 28 5.74 27.76 0 54.17-16.26 65.78-43.4.66-1.54 1.39-3.09 2.16-4.6 12.45-24.37 37.66-39.51 65.79-39.51 12.21 0 24.48 2.98 35.5 8.61 18.11 9.25 31.66 24.77 38.14 43.7 6.58 19.2 5.25 38.73-3.82 56.5-3.3 6.46-7.51 12.33-12.51 17.47-23.77 24.43-26.99 62.23-7.72 90.33 3.98 5.8 7.17 12.16 9.48 18.91 6.71 19.58 5.36 39.52-3.9 57.64-12.7 24.86-38.42 40.31-67.12 40.31z"/><path d="m330.75 527.33c-12.45 0-24.97-3.04-36.22-8.78-12.79-6.53-23.5-16.22-30.97-28.02-13.41-21.16-36.46-33.25-60.43-33.25-7.92 0-15.94 1.32-23.74 4.07-10.9 3.84-22.43 5.79-34.26 5.79-16.46 0-33.02-4.01-47.89-11.61-24.42-12.48-42.69-33.41-51.43-58.93s-6.91-52.58 5.16-76.2c16.79-32.87 50.79-53.28 88.73-53.28 13.93 0 28.19 2.94 41.26 8.51 9.15 3.9 18.65 5.74 28 5.74 27.76 0 54.17-16.26 65.78-43.4.66-1.54 1.39-3.09 2.16-4.6 12.45-24.37 37.66-39.51 65.79-39.51 12.21 0 24.48 2.98 35.5 8.61 18.11 9.25 31.66 24.77 38.14 43.7 6.58 19.2 5.25 38.73-3.82 56.5-3.3 6.46-7.51 12.33-12.51 17.47-23.77 24.43-26.99 62.23-7.72 90.33 3.98 5.8 7.17 12.16 9.48 18.91 6.71 19.58 5.36 39.52-3.9 57.64-12.7 24.86-38.42 40.31-67.12 40.31z"/></g><g fill="none" stroke="#fff" stroke-miterlimit="10" stroke-width="6"><path d="m126.91 330.89v-34.26c0-10.5 9.78-19.01 21.84-19.01s21.84 8.51 21.84 19.01v34.26"/><circle cx="206.82" cy="304.26" r="26.38"/><path d="m364.92 303.66c-5.9 0-10.68-5.49-10.68-12.27s4.78-12.27 10.68-12.27h19.25"/><path d="m375.96 303.66h-11.05"/><path d="m387.01 304.85c5.9 0 10.68 5.49 10.68 12.27s-4.78 12.27-10.68 12.27h-19.25"/><path d="m375.97 304.85h11.05"/><path d="m410.3 277.62v34.26c0 10.5 9.78 19.01 21.84 19.01s21.84-8.51 21.84-19.01v-34.26"/><circle cx="317.81" cy="304.26" r="26.38"/><path d="m265.75 279.16h19.19"/><path d="m265.75 328.08c-11.76 0-21.29-10.95-21.29-24.46s9.53-24.46 21.29-24.46"/><path d="m284.94 328.08h-19.19"/><path d="m243.17 277.96v51.32"/></g></svg>