<svg viewBox="0 0 24 24" xmlns="http://www.w3.org/2000/svg"><g fill="none" stroke="#000" stroke-miterlimit="10"><path d="m19.33 6.27h-2.96c-.22 0-.42-.13-.51-.33l-.97-2.18h-5.78l-1.03 2.31c-.06.12-.16.19-.29.19h-.54v-.65h-2.34v.65h-.8c-1.07 0-1.95.87-1.95 1.95v10.09c0 1.07.87 1.95 1.95 1.95h15.76c1.07 0 1.95-.87 1.95-1.95v-9.51c.01-1.38-1.12-2.51-2.5-2.51z" stroke-width=".75"/><circle cx="12" cy="13.26" r="3.54" stroke-width=".75"/><path d="m17.68 8.51h1.96c.1 0 .19.09.19.19v.7c0 .1-.09.19-.19.19h-1.96c-.1 0-.19-.09-.19-.19v-.7c0-.1.09-.19.19-.19z" stroke-width=".5"/></g></svg>