<svg viewBox="0 0 24 24" xmlns="http://www.w3.org/2000/svg"><g fill="#91bdff"><circle cx="10.56" cy="6.32" r="3.16"/><path d="m20.97 5.31c-1.94 1.65-5.3 4.03-9.19 4.75-4.07.75-7.37 4.25-9.13 6.51-.18.23.15.5.38.31 1.33-1.13 3.35-2.62 5.74-3.67.33-.14.71.03.83.37.23.67.44 1.51.52 2.47.14 1.83-.26 3.33-.62 4.29-.06.16.03.32.19.35.67.11 1.52.18 2.5.13 1.04-.06 1.93-.24 2.61-.44.2-.06.35-.21.4-.4.37-1.32.71-3.17.53-5.37-.1-1.15-.32-2.17-.57-3.02-.08-.26.03-.53.25-.68 3.01-1.95 5.25-4.4 5.94-5.29.18-.23-.15-.5-.38-.31z"/></g></svg>