<svg viewBox="0 0 24 24" xmlns="http://www.w3.org/2000/svg"><path d="m18.28 13.93c2.26-.73 3.93-2.14 4.35-3.49l-2.2-.47 1.51-1.67c-1.13-.85-3.31-1.01-5.57-.27-.58.19-1.11.49-1.57.85.2-.55.32-1.14.32-1.76 0-2.37-.82-4.4-1.98-5.21l-1.13 1.95-1.13-1.95c-1.16.81-1.98 2.84-1.98 5.21 0 .61.12 1.2.32 1.76-.46-.36-.99-.66-1.57-.85-2.26-.73-4.44-.58-5.57.27l1.51 1.67-2.2.47c.41 1.35 2.09 2.76 4.35 3.49.58.19 1.18.26 1.77.24-.48.33-.93.74-1.29 1.23-1.39 1.92-1.92 4.04-1.46 5.38l2.06-.92-.24 2.24c1.41.02 3.27-1.13 4.67-3.05.36-.5.61-1.05.77-1.61.17.56.41 1.11.77 1.61 1.39 1.92 3.25 3.08 4.67 3.05l-.24-2.24 2.06.92c.46-1.34-.07-3.46-1.46-5.38-.36-.5-.81-.9-1.29-1.23.59.02 1.18-.05 1.77-.24z" fill="#ff9191"/></svg>