<svg viewBox="0 0 24 24" xmlns="http://www.w3.org/2000/svg"><g fill="none" stroke="#000" stroke-linecap="round" stroke-linejoin="round" stroke-width=".75"><path d="m16.98 21.86v-2.26c0-1.2-.38-2.35-1.07-3.19s-1.62-1.32-2.58-1.32h-7.32c-.97 0-1.9.47-2.58 1.32-.68.84-1.07 2-1.07 3.19v2.26"/><path d="m9.67 11.16c2.49 0 4.51-2.02 4.51-4.51s-2.02-4.51-4.51-4.51-4.51 2.02-4.51 4.51 2.02 4.51 4.51 4.51z"/><path d="m21.63 21.86v-2.26c0-1-.34-1.96-.94-2.76-.61-.8-1.47-1.36-2.43-1.6"/><path d="m15.2 2.29c.97.25 1.83.81 2.45 1.6s.94 1.76.94 2.76-.34 1.97-.94 2.76c-.62.79-1.47 1.36-2.45 1.6"/></g></svg>