<svg viewBox="0 0 24 24" xmlns="http://www.w3.org/2000/svg"><path d="m17.54 10.49h-11.08c-.88 0-1.58.81-1.58 1.81v6.32c0 1 .71 1.8 1.58 1.8h11.09c.88 0 1.58-.81 1.58-1.8v-6.32c0-1-.71-1.81-1.58-1.81z" fill="none" stroke="#000" stroke-miterlimit="10" stroke-width=".75"/><path d="m7.48 10.49v-3.07c0-1.02.47-1.99 1.32-2.72.85-.72 2-1.13 3.19-1.13s2.34.4 3.19 1.13c.84.72 1.32 1.7 1.32 2.72" fill="none" stroke="#000" stroke-miterlimit="10" stroke-width=".75"/><path d="m13.05 14.87c0-.58-.47-1.05-1.05-1.05s-1.05.47-1.05 1.05c0 .45.28.83.68.98v1.47h.75v-1.47c.39-.15.67-.53.67-.98z"/><circle cx="9.77" cy="16.15" fill="none" r="11.76"/></svg>